<svg xmlns="http://www.w3.org/2000/svg" width="1024" height="1024" viewBox="0 0 1024 1024">
<g>
<path d="M 343.50 657.48 C301.29,650.66 265.41,627.75 242.51,593.01 C231.62,576.50 224.39,558.71 220.36,538.46 C217.87,525.98 217.87,498.02 220.36,485.54 C228.28,445.79 249.75,412.99 282.65,390.32 C304.62,375.18 331.00,366.55 359.00,365.34 C374.41,364.67 386.23,365.86 400.66,369.51 C421.03,374.67 425.65,376.97 489.31,413.84 L 512.11 427.05 L 524.81 419.63 C563.54,396.99 591.03,381.39 597.44,378.43 C606.81,374.10 617.35,370.69 630.21,367.80 C644.74,364.55 672.61,364.55 687.65,367.80 C707.99,372.20 726.04,379.77 741.35,390.32 C774.25,412.99 795.72,445.79 803.64,485.54 C806.13,498.02 806.13,525.98 803.64,538.46 C795.72,578.21 774.25,611.01 741.35,633.68 C719.20,648.95 692.96,657.48 664.50,658.68 C648.83,659.34 638.19,658.25 623.21,654.46 C602.99,649.34 598.27,646.98 534.73,610.17 L 511.96 596.98 L 472.81 619.63 C423.55,648.14 419.03,650.26 396.00,655.67 C382.51,658.84 357.29,659.71 343.50,657.48 ZM 511.76 553.91 L 511.50 511.83 L 498.00 504.09 C490.58,499.83 466.73,486.04 445.00,473.44 C398.06,446.20 393.06,443.62 382.07,440.87 C369.65,437.77 353.84,438.49 341.74,442.71 C329.83,446.87 322.98,451.13 313.95,460.00 C305.26,468.54 299.40,477.81 295.32,489.50 C292.76,496.84 292.53,498.70 292.53,512.00 C292.53,525.30 292.76,527.16 295.32,534.50 C300.37,548.95 309.90,562.36 320.82,570.36 C328.16,575.74 356.80,592.00 358.93,592.00 C359.99,592.00 361.79,590.81 362.93,589.37 C364.93,586.82 365.00,585.60 365.00,553.90 C365.00,521.42 365.02,521.06 367.19,519.04 C368.39,517.92 370.40,517.00 371.66,517.00 C374.05,517.00 396.19,529.53 488.00,582.84 C500.38,590.02 510.84,595.92 511.26,595.95 C511.68,595.98 511.90,577.06 511.76,553.91 ZM 682.26 581.30 C694.18,577.13 701.03,572.86 710.05,564.00 C718.74,555.46 724.60,546.19 728.68,534.50 C731.24,527.16 731.47,525.30 731.47,512.00 C731.47,498.70 731.24,496.84 728.68,489.50 C723.63,475.05 714.10,461.64 703.18,453.64 C695.84,448.26 667.20,432.00 665.07,432.00 C664.01,432.00 662.21,433.19 661.07,434.63 C659.07,437.18 659.00,438.40 659.00,470.13 C659.00,501.67 658.92,503.08 657.00,505.00 C655.90,506.10 653.85,507.00 652.46,507.00 C650.97,507.00 636.06,499.00 616.71,487.82 C598.44,477.28 581.03,467.23 578.00,465.50 C574.97,463.77 559.14,454.63 542.81,445.18 C526.48,435.73 512.86,428.00 512.55,428.00 C512.23,428.00 512.10,446.94 512.24,470.09 L 512.50 512.17 L 526.00 519.91 C533.42,524.17 557.28,537.96 579.00,550.56 C600.72,563.17 621.88,575.18 626.00,577.25 C638.05,583.31 646.31,585.06 661.00,584.68 C671.88,584.40 674.64,583.96 682.26,581.30 Z" fill="rgba(0,0,0,1)"/>
</g>
</svg>